<svg width="120" height="120" viewBox="0 0 120 120" fill="none" xmlns="http://www.w3.org/2000/svg">
<rect width="120" height="120" rx="60" fill="#EE8100"/>
<path d="M30.9001 81L35.5081 69.8L38.1961 69.8L42.7401 81H40.2281L39.0921 78.056L34.4681 78.056L33.3161 81H30.9001ZM35.1881 76.2L38.3881 76.2L36.8041 72.072L35.1881 76.2ZM43.6908 69.8L48.9548 69.8C50.0748 69.8 50.9868 70.088 51.6908 70.664C52.3948 71.2293 52.7468 71.9653 52.7468 72.872C52.7468 73.3627 52.6241 73.8107 52.3788 74.216C52.1335 74.6213 51.7975 74.9573 51.3708 75.224C51.9041 75.48 52.3308 75.832 52.6508 76.28C52.9708 76.7173 53.1308 77.208 53.1308 77.752C53.1308 78.7227 52.7681 79.5067 52.0428 80.104C51.3281 80.7013 50.3841 81 49.2108 81L43.6908 81L43.6908 69.8ZM48.8108 71.72L46.0108 71.72V74.376L48.8108 74.376C49.3015 74.376 49.6961 74.2587 49.9948 74.024C50.2935 73.7787 50.4428 73.4533 50.4428 73.048C50.4428 72.6427 50.2935 72.3227 49.9948 72.088C49.6961 71.8427 49.3015 71.72 48.8108 71.72ZM49.0348 79.08C49.5681 79.08 49.9948 78.952 50.3148 78.696C50.6348 78.4293 50.7948 78.072 50.7948 77.624C50.7948 77.1973 50.6348 76.8507 50.3148 76.584C49.9948 76.3173 49.5681 76.184 49.0348 76.184L46.0108 76.184L46.0108 79.08L49.0348 79.08ZM66.0211 75.4C66.0211 76.2 65.8664 76.9573 65.5571 77.672C65.2477 78.376 64.8264 78.9893 64.2931 79.512C63.7704 80.024 63.1464 80.4293 62.4211 80.728C61.6957 81.0267 60.9171 81.176 60.0851 81.176C59.2637 81.176 58.4904 81.0267 57.7651 80.728C57.0397 80.4293 56.4104 80.024 55.8771 79.512C55.3544 78.9893 54.9384 78.376 54.6291 77.672C54.3197 76.9573 54.1651 76.2 54.1651 75.4C54.1651 74.6 54.3197 73.848 54.6291 73.144C54.9384 72.4293 55.3544 71.816 55.8771 71.304C56.4104 70.7813 57.0397 70.3707 57.7651 70.072C58.4904 69.7733 59.2637 69.624 60.0851 69.624C60.9171 69.624 61.6957 69.7733 62.4211 70.072C63.1464 70.3707 63.7704 70.7813 64.2931 71.304C64.8264 71.816 65.2477 72.4293 65.5571 73.144C65.8664 73.848 66.0211 74.6 66.0211 75.4ZM63.6371 75.4C63.6371 74.8773 63.5464 74.3973 63.3651 73.96C63.1837 73.512 62.9331 73.128 62.6131 72.808C62.3037 72.4773 61.9304 72.2213 61.4931 72.04C61.0557 71.848 60.5864 71.752 60.0851 71.752C59.5837 71.752 59.1144 71.848 58.6771 72.04C58.2504 72.2213 57.8771 72.4773 57.5571 72.808C57.2477 73.128 57.0024 73.512 56.8211 73.96C56.6397 74.3973 56.5491 74.8773 56.5491 75.4C56.5491 75.912 56.6397 76.392 56.8211 76.84C57.0024 77.288 57.2477 77.6773 57.5571 78.008C57.8771 78.328 58.2504 78.584 58.6771 78.776C59.1144 78.9573 59.5837 79.048 60.0851 79.048C60.5864 79.048 61.0557 78.9573 61.4931 78.776C61.9304 78.584 62.3037 78.328 62.6131 78.008C62.9331 77.6773 63.1837 77.288 63.3651 76.84C63.5464 76.392 63.6371 75.912 63.6371 75.4ZM77.3567 76.152C77.3567 76.9093 77.2394 77.6027 77.0047 78.232C76.77 78.8507 76.434 79.3787 75.9967 79.816C75.57 80.2427 75.0474 80.5733 74.4287 80.808C73.8207 81.0427 73.1434 81.16 72.3967 81.16C71.6394 81.16 70.9514 81.0427 70.3327 80.808C69.7247 80.5733 69.2074 80.2427 68.7807 79.816C68.354 79.3787 68.0234 78.8507 67.7887 78.232C67.554 77.6133 67.4367 76.92 67.4367 76.152L67.4367 69.8H69.7567L69.7567 76.152C69.7567 77.016 69.9967 77.7093 70.4767 78.232C70.9674 78.7547 71.6127 79.016 72.4127 79.016C73.2127 79.016 73.8474 78.7547 74.3167 78.232C74.7967 77.7093 75.0367 77.016 75.0367 76.152L75.0367 69.8H77.3567L77.3567 76.152ZM78.4864 71.848L78.4864 69.8L88.3424 69.8L88.3424 71.848H84.5824L84.5824 81L82.2624 81L82.2624 71.848L78.4864 71.848Z" fill="white"/>
<path d="M62.2598 39.0625L70.0017 46.8044L62.2598 54.5464" stroke="white" stroke-width="2"/>
<path d="M51 46.8047L69.0645 46.8047" stroke="white" stroke-width="2" stroke-miterlimit="10" stroke-linecap="square"/>
</svg>
