<svg width="1400" height="547" viewBox="0 0 1400 547" fill="none" xmlns="http://www.w3.org/2000/svg">
<path d="M1224.01 0L832.486 390.207C828.768 393.527 828.254 393.013 823.943 395.74L819.554 396.373C807.215 395.78 800.887 389.931 800.887 378.706V0H164.243C118.605 0 80.0056 16.3624 47.8927 48.9686C15.7797 81.5748 0 120.939 0 167.299C0 213.659 16.0565 253.34 47.8927 286.223C80.0056 319.106 118.881 335.468 164.52 335.468H450.689C462.277 335.468 472.085 339.618 480.271 348.116C488.181 356.455 492.412 366.494 492.412 378.429C492.412 390.365 488.181 400.404 479.718 408.427C471.254 416.49 461.684 420.482 450.689 420.482H0V546.875H450.136C495.458 546.875 534.333 530.513 566.723 497.906C598.836 465.142 615.169 425.54 615.169 378.864C615.169 332.188 598.836 293.14 566.169 259.506C533.463 225.912 494.588 209.075 449.542 209.075H163.373C151.825 209.075 142.254 205.044 134.384 196.862C126.475 188.839 122.797 178.919 122.797 167.26C122.797 155.601 126.475 145.997 134.068 138.092C141.384 130.346 151.232 126.314 163.333 126.314H675.559V420.64C675.559 455.973 687.898 485.852 712.339 510.238C736.78 534.663 766.678 546.875 801.994 546.875C837.311 546.875 866.932 533.674 892.836 506.957L1400 0H1224.01Z" fill="#051829"/>
</svg>
